<?xml version="1.0" encoding="utf-8"?>
<!-- Svg Vector Icons : http://www.onlinewebfonts.com/icon -->
<!DOCTYPE svg PUBLIC "-//W3C//DTD SVG 1.1//EN" "http://www.w3.org/Graphics/SVG/1.1/DTD/svg11.dtd">
<svg version="1.1" xmlns="http://www.w3.org/2000/svg" xmlns:xlink="http://www.w3.org/1999/xlink" x="0px" y="0px" viewBox="0 0 1000 1000" enable-background="new 0 0 1000 1000" xml:space="preserve">
<metadata> Svg Vector Icons : http://www.onlinewebfonts.com/icon </metadata>
<g><path d="M880.1,348.8c-0.5-4.1-2.5-15.4-9-23.1c-7.5-8.9-25.3-9.1-25.4-8.9c0,0,17.3-1,25.4-8.9c9.2-8.9,9.2-24.7,9.2-24.7s0.3,16.1,9.2,24.7c8.4,8.2,25.4,8.9,25.4,8.9s-20.1,0.8-28.5,8.9C879.2,332.8,879.7,344.6,880.1,348.8z M880.1,348.8c0.1,1,0.2,1.7,0.2,1.7S880.3,349.8,880.1,348.8z M783.7,311.2c-1.4-10.4-6.4-38.6-22.6-57.9c-18.8-22.4-63.5-22.8-64-22.4c0,0,43.6-2.6,64-22.4c23-22.3,23.1-62.2,23.1-62.2s0.8,40.5,23.1,62.2c21.2,20.6,64,22.4,64,22.4s-50.6,2-71.6,22.4C781.4,271,782.6,300.6,783.7,311.2z M783.7,311.2c0.3,2.5,0.5,4.3,0.5,4.3S783.9,313.7,783.7,311.2z M908.4,990H480.2l-63.1-604h552.5L908.4,990z M517.6,944.1H871l52.7-520.2H464.9L517.6,944.1z M694.3,668.7c-109.8,0-198.8-89-198.8-198.9h45.9c0,84.5,68.5,153,152.9,153c84.5,0,152.9-68.5,152.9-153h45.9C893.1,579.7,804.1,668.7,694.3,668.7z M30.4,867.5h0.4c3.8-94.3,75.7-170.9,167.9-182V144.9c-9-4.5-15.2-13.6-15.2-24.3V37.2c0-15,12.2-27.2,27.2-27.2h21.9c15,0,27.2,12.2,27.2,27.2v83.4c0,10.7-6.2,19.8-15.2,24.3v540.7c92.1,11.1,163.9,87.7,167.7,182h0.6V990H30.4V867.5z M76.4,944.1H367v-30.6H76.4V944.1z M366.9,867.6c0-80.3-65-137.7-145.3-137.7c-80.3,0-145.3,57.4-145.3,137.7H366.9z"/></g>
</svg>